<?xml version="1.0" standalone="no"?><!DOCTYPE svg PUBLIC "-//W3C//DTD SVG 1.1//EN" "http://www.w3.org/Graphics/SVG/1.1/DTD/svg11.dtd"><svg t="1588087275421" class="icon" viewBox="0 0 1205 1024" version="1.1" xmlns="http://www.w3.org/2000/svg" p-id="2925" data-spm-anchor-id="a313x.7781069.0.i10" xmlns:xlink="http://www.w3.org/1999/xlink" width="18.828125" height="16"><defs><style type="text/css"></style></defs><path d="M903.529412 0 301.176471 0 0 512l301.176471 512 602.352941 0 301.146353-512L903.529412 0zM864.045176 963.764706 340.600471 963.764706 78.848 527.058824 340.600471 90.352941l523.474824 0 261.782588 436.705882L864.045176 963.764706z" p-id="2926" data-spm-anchor-id="a313x.7781069.0.i6" class="selected" fill="#0f4c81"></path><path d="M520.041412 460.589176l-27.617882 0c-14.757647 114.176-48.519529 187.843765-101.345882 221.033412-6.144 3.674353-10.420706 4.306824-12.890353 1.867294-1.234824-2.469647 0.602353-6.776471 5.541647-12.890353 34.364235-70.023529 47.887059-168.237176 40.538353-294.761412l-5.541647 0c-9.848471 1.234824-19.636706 2.499765-29.455059 3.704471-4.939294 1.234824-8.011294 0-9.216-3.704471-1.264941 0-3.072-3.704471-5.511529-11.083294-1.264941-1.204706-1.867294-2.439529-1.867294-3.644235 1.204706-1.234824 3.072-1.867294 5.511529-1.867294 8.583529 2.499765 25.178353 3.704471 49.754353 3.704471l99.448471 0c13.492706-24.545882 23.311059-37.436235 29.485176-38.671059 7.348706 2.499765 22.678588 14.125176 46.049882 34.996706 8.583529-33.159529 14.125176-65.686588 16.564706-97.641412 0-6.144 3.704471-8.553412 11.053176-7.378824 33.129412 7.378824 60.175059 13.552941 81.046588 18.432 4.909176 2.499765 7.348706 6.144 7.348706 11.083294 0 6.144-2.439529 9.216-7.348706 9.216-4.909176 1.204706-9.818353 4.909176-14.757647 11.023059-6.113882 13.522824-12.860235 25.208471-20.239059 34.996706l58.940235 0c17.197176-28.250353 28.852706-43.580235 35.026824-46.019765 23.250824 13.522824 43.550118 30.117647 60.807529 49.724235 2.409412 7.378824 1.174588 11.053176-3.704471 11.053176l-160.256 0c-13.522824 20.901647-27.015529 38.068706-40.508235 51.561412 3.674353 2.469647 10.390588 5.541647 20.239059 9.216 9.818353 4.939294 17.167059 8.011294 22.106353 9.216 29.485176-15.962353 55.838118-33.761882 79.209412-53.398588 6.113882-4.909176 12.227765-5.571765 18.401882-1.867294 18.401882 15.962353 35.629176 30.72 51.561412 44.242824 2.469647 3.674353 3.072 7.348706 1.897412 11.023059-2.469647 3.704471-6.174118 4.306824-11.053176 1.837176-9.848471-1.204706-19.636706-1.204706-29.485176 0-25.750588 7.378824-52.796235 11.685647-81.016471 12.890353 6.113882 28.280471 14.697412 52.224 25.750588 71.860706 12.257882-19.606588 22.708706-38.008471 31.352471-55.265882 3.674353-7.348706 8.553412-9.216 14.727529-5.511529 4.848941 4.939294 14.697412 11.685647 29.455059 20.269176 11.053176 7.348706 18.401882 11.685647 22.106353 12.890353 3.704471 3.704471 4.879059 8.011294 3.704471 12.890353-2.499765 4.909176-6.174118 6.776471-11.053176 5.511529-7.378824-1.204706-15.390118 0.632471-23.973647 5.511529-8.583529 4.939294-23.943529 11.083294-46.049882 18.401882-4.909176 2.499765-9.216 4.367059-12.860235 5.571765 23.250824 42.977882 54.000941 73.095529 92.069647 90.262588 7.408941 3.704471 11.053176 7.378824 11.053176 11.083294 0 3.674353-3.072 7.348706-9.185882 11.053176-17.227294 4.879059-30.750118 15.932235-40.568471 33.159529-7.348706 8.583529-14.697412 10.420706-22.106353 5.541647-17.167059-12.257882-31.924706-29.485176-44.212706-51.591529-47.856941 36.864-73.065412 59.602824-75.504941 68.186353-7.378824 11.053176-15.36 13.492706-23.943529 7.378824-2.469647-4.939294-7.348706-12.920471-14.727529-23.973647-7.348706-11.023059-12.288-19.034353-14.727529-23.973647-6.174118-7.348706-4.909176-12.227765 3.704471-14.697412 8.583529-2.469647 12.890353-13.492706 12.890353-33.189647l0-108.664471c-1.234824-23.280941-2.499765-47.887059-3.674353-73.667765-7.378824 6.174118-14.727529 11.685647-22.106353 16.594824 1.204706 2.439529 1.837176 3.072 1.837176 1.837176 9.818353 8.613647 14.757647 13.552941 14.757647 14.757647-1.264941 3.704471-4.336941 8.011294-9.216 12.890353-3.704471 2.469647-6.174118 6.776471-7.378824 12.890353-1.264941 13.522824-2.469647 33.129412-3.704471 58.970353-2.469647 26.985412-4.909176 55.235765-7.378824 84.720941-4.939294 30.689882-26.413176 50.959059-64.481882 60.807529-14.727529 3.674353-22.106353 0.632471-22.106353-9.216-3.674353-18.401882-14.727529-30.689882-33.159529-36.833882-1.234824 0-2.499765 0-3.704471 0-6.144-2.439529-8.011294-4.879059-5.511529-7.378824-1.234824-3.674353 2.469647-4.879059 11.053176-3.674353 34.364235 7.348706 52.766118-0.632471 55.235765-23.973647C512.030118 564.344471 516.336941 514.650353 520.041412 460.589176zM462.908235 326.083765c-4.909176-20.841412-13.522824-39.273412-25.780706-55.265882-2.469647-3.674353-3.674353-6.113882-3.674353-7.348706 1.234824-2.469647 4.276706-3.704471 9.216-3.704471 40.508235 1.234824 66.921412 11.023059 79.209412 29.485176 9.818353 24.545882 3.041882 42.375529-20.269176 53.398588C481.942588 348.852706 469.052235 343.311059 462.908235 326.083765zM496.067765 407.160471c0 6.174118-0.632471 13.552941-1.837176 22.076235 0 8.643765 0 14.155294 0 16.594824l16.564706 0c1.234824-2.439529 1.867294-3.041882 1.867294-1.837176 11.053176-14.757647 18.432-22.106353 22.106353-22.106353 7.378824 1.204706 19.636706 6.776471 36.864 16.534588 0 1.264941 0 0.662588 0-1.837176 8.553412-15.932235 17.167059-36.201412 25.780706-60.777412l-90.292706 0c1.234824 4.939294-0.632471 9.216-5.511529 12.890353C499.109647 391.228235 497.272471 397.342118 496.067765 407.160471zM667.376941 613.466353c3.704471 0 9.818353-1.204706 18.401882-3.704471 9.818353-3.674353 17.799529-6.113882 23.973647-7.348706-15.962353-40.568471-23.973647-95.171765-23.973647-163.990588-3.644235 2.499765-6.746353 3.132235-9.216 1.867294l-1.867294 0c-4.909176 3.704471-7.348706 9.216-7.348706 16.594824L667.346824 613.466353z" p-id="2927" fill="#e6e6e6"></path></svg>