<?xml version="1.0" standalone="no"?><!DOCTYPE svg PUBLIC "-//W3C//DTD SVG 1.1//EN" "http://www.w3.org/Graphics/SVG/1.1/DTD/svg11.dtd"><svg t="1592404394535" class="icon" viewBox="0 0 1024 1024" version="1.1" xmlns="http://www.w3.org/2000/svg" p-id="2741" xmlns:xlink="http://www.w3.org/1999/xlink" width="32" height="32"><defs><style type="text/css"></style></defs><path d="M512 32C246.9 32 32 246.9 32 512s214.9 480 480 480 480-214.9 480-480S777.1 32 512 32z m214.55 505.91H537.91v188.64c0 14.31-11.6 25.91-25.91 25.91s-25.91-11.6-25.91-25.91V537.91H297.45c-14.31 0-25.91-11.6-25.91-25.91s11.6-25.91 25.91-25.91h188.64V297.45c0-14.31 11.6-25.91 25.91-25.91s25.91 11.6 25.91 25.91v188.64h188.64c14.31 0 25.91 11.6 25.91 25.91s-11.6 25.91-25.91 25.91z" fill="#0f4c81" p-id="2742"></path></svg>