<?xml version="1.0" standalone="no"?><!DOCTYPE svg PUBLIC "-//W3C//DTD SVG 1.1//EN" "http://www.w3.org/Graphics/SVG/1.1/DTD/svg11.dtd"><svg t="1591709368340" class="icon" viewBox="0 0 1082 1024" version="1.1" xmlns="http://www.w3.org/2000/svg" p-id="3444" xmlns:xlink="http://www.w3.org/1999/xlink" width="33.8125" height="32"><defs><style type="text/css"></style></defs><path d="M1078.385778 389.063111C1061.888 337.863111 970.638222 326.087111 874.097778 313.400889 821.134222 306.631111 761.002667 298.723556 742.855111 285.525333 724.48 272.327111 699.050667 217.998222 676.522667 169.927111 635.448889 82.659556 596.707556 0.227556 542.435556-0.056889L541.354667-0.056889C487.594667 0.853333 448.341333 82.261333 406.698667 168.618667 383.772444 216.405333 357.546667 270.506667 339.342222 283.420444 320.910222 296.561778 260.721778 303.843556 207.644444 310.272 111.047111 321.877333 19.797333 332.743111 2.673778 383.658667-14.222222 434.744889 52.394667 497.379556 122.993778 563.655111 161.792 600.064 205.710222 641.308444 212.593778 662.528 219.477333 683.804444 207.758222 742.684444 197.632 794.567111 178.858667 888.945778 161.223111 978.318222 204.970667 1010.176 215.381333 1017.628444 228.522667 1021.383111 244.110222 1021.098667 288.824889 1020.302222 353.052444 985.998222 415.175111 952.661333 461.653333 927.459556 514.389333 899.185778 537.941333 898.787556 560.696889 898.901333 613.546667 928.028444 660.252444 953.685333 723.683556 988.615111 789.504 1024.739556 834.218667 1024 848.213333 1023.772444 860.046222 1020.188444 869.774222 1013.304889 913.806222 981.959111 897.080889 892.700444 879.331556 797.923556 869.546667 745.984 858.624 686.990222 865.621333 665.770667 872.675556 644.608 917.162667 603.761778 956.302222 567.694222 1027.527111 502.044444 1094.826667 440.263111 1078.385778 389.063111Z" p-id="3445" fill="#0f4c81"></path></svg>