<?xml version="1.0" standalone="no"?><!DOCTYPE svg PUBLIC "-//W3C//DTD SVG 1.1//EN" "http://www.w3.org/Graphics/SVG/1.1/DTD/svg11.dtd"><svg t="1592499896367" class="icon" viewBox="0 0 1024 1024" version="1.1" xmlns="http://www.w3.org/2000/svg" p-id="2136" xmlns:xlink="http://www.w3.org/1999/xlink" width="32" height="32"><defs><style type="text/css"></style></defs><path d="M958.390857 475.136l-0.877714-3.072c-0.512-1.536-1.024-2.925714-1.243429-3.949714-12.288-48.420571-42.934857-68.388571-66.56-76.726857a154.697143 154.697143 0 0 0-49.517714-8.045715h-0.731429c-29.257143-0.219429-58.660571-0.219429-87.990857-0.219428l-64.073143 0.073143h-21.577142c2.267429-13.970286 4.461714-27.428571 7.094857-40.813715 8.777143-44.909714 7.168-84.114286-5.12-119.808-7.606857-22.162286-16.091429-44.251429-24.137143-65.609143l-9.069714-23.552a95.085714 95.085714 0 0 0-53.686858-56.832 141.092571 141.092571 0 0 0-124.635428 3.876572c-33.060571 17.334857-50.834286 46.811429-49.883429 83.163428l0.804572 36.205715c0.438857 20.187429 0.804571 41.106286 1.682285 61.659428a16.457143 16.457143 0 0 1-2.194285 9.947429c-7.314286 12.653714-14.774857 25.453714-21.942857 38.034286-17.115429 29.842286-34.816 60.708571-53.101715 89.965714-26.550857 42.130286-82.432 48.566857-82.432 48.566857H135.972571a71.972571 71.972571 0 0 0-71.972571 71.972571v368.054858c0 39.789714 32.182857 71.972571 71.972571 71.972571H384.292571l159.232-0.219429c33.792 0 67.510857 0.219429 100.644572 0.219429h93.915428c21.211429 0 46.299429-1.462857 72.045715-9.801143 53.540571-17.554286 88.137143-61.220571 92.379428-116.809143a157.257143 157.257143 0 0 0-2.633143-45.860571c16.896-26.404571 24.502857-54.345143 22.674286-83.163429a118.052571 118.052571 0 0 0-4.388571-24.283428c16.091429-23.990857 23.844571-49.737143 23.113143-76.580572a135.606857 135.606857 0 0 0-4.900572-29.622857c9.216-13.604571 15.945143-28.525714 19.748572-44.617143l3.876571-5.12v-43.885714l-1.609143-5.12zM248.027429 887.954286H135.972571V519.972571h112.054858v368.054858z m640-383.268572l-1.901715 7.826286a64.438857 64.438857 0 0 1-9.289143 21.138286l-18.944 27.867428 9.289143 32.402286a60.269714 60.269714 0 0 1 2.194286 12.726857 56.612571 56.612571 0 0 1-10.898286 33.499429l-18.797714 28.013714 9.508571 32.256c0.877714 2.925714 1.462857 5.851429 1.609143 8.923429a64.731429 64.731429 0 0 1-11.629714 39.424l-15.798857 24.941714 5.339428 25.234286h-8.777142 8.777142l0.731429 3.364571c1.755429 8.045714 2.194286 16.237714 1.462857 24.356571l-0.073143 0.585143v0.585143a59.904 59.904 0 0 1-12.361143 33.28 62.976 62.976 0 0 1-30.573714 20.48c-16.091429 5.339429-33.426286 6.217143-49.737143 6.217143H644.388571l-49.883428-0.146286-50.834286-0.146285c-47.542857 0-103.716571 0.292571-159.451428 0.292571H320.365714l0.804572-387.657143c30.427429-14.848 54.857143-36.132571 71.533714-62.390857v-0.219429l0.146286-0.219428c18.724571-29.988571 36.571429-61.001143 53.686857-90.989714l0.731428-1.097143 0.073143-0.073143 0.146286-0.146286c4.461714-7.899429 9.289143-16.164571 13.897143-24.137143l7.68-13.385143c8.996571-15.286857 13.165714-32.694857 11.922286-50.249142a2195.017143 2195.017143 0 0 1-1.462858-57.197715v-1.682285l-0.877714-36.864c-0.146286-6.070857 1.462857-8.704 1.901714-9.508572a23.259429 23.259429 0 0 1 9.435429-7.753143 68.534857 68.534857 0 0 1 32.402286-8.338285c9.874286 0 20.406857 2.340571 31.085714 6.729142 5.997714 2.486857 10.532571 5.997714 14.116571 15.725715l9.069715 23.990857c8.996571 23.478857 16.384 43.081143 23.405714 63.268571 8.045714 23.405714 8.923429 50.468571 2.486857 82.505143-2.706286 13.824-4.973714 27.209143-7.606857 43.154286L581.12 454.948571h106.203429c10.459429 0 21.065143 0 31.744-0.146285h32.329142c25.819429 0 56.32 0 87.332572 0.292571h0.438857l0.512-0.146286h0.438857c8.777143 0 17.481143 1.462857 25.892572 4.169143 7.899429 2.925714 15.798857 8.338286 20.406857 26.404572 0.512 2.121143 1.609143 4.022857 1.609143 5.632v13.604571z" fill="#0f4c81" p-id="2137"></path></svg>