<?xml version="1.0" standalone="no"?><!DOCTYPE svg PUBLIC "-//W3C//DTD SVG 1.1//EN" "http://www.w3.org/Graphics/SVG/1.1/DTD/svg11.dtd"><svg t="1592412687152" class="icon" viewBox="0 0 1024 1024" version="1.1" xmlns="http://www.w3.org/2000/svg" p-id="3329" xmlns:xlink="http://www.w3.org/1999/xlink" width="32" height="32"><defs><style type="text/css"></style></defs><path d="M511.9744 0C229.2224 0 0 229.2224 0 511.9744s229.2224 511.9744 511.9744 511.9744 511.9744-229.2224 511.9744-511.9744S794.73152 0 511.9744 0z m293.6576 379.17696L474.51136 710.2976l-0.01024 0.01024c-15.26272 15.26272-38.54336 17.64864-56.30976 7.15264a46.81728 46.81728 0 0 1-9.22112-7.15264l-0.00512-0.01024-190.6432-190.63808A46.336 46.336 0 1 1 283.8528 454.1184l157.88544 157.88544 298.36288-298.35776a46.336 46.336 0 1 1 65.53088 65.53088z" fill="#0f4c81" p-id="3330"></path></svg>