<?xml version="1.0" standalone="no"?><!DOCTYPE svg PUBLIC "-//W3C//DTD SVG 1.1//EN" "http://www.w3.org/Graphics/SVG/1.1/DTD/svg11.dtd"><svg t="1589644295722" class="icon" viewBox="0 0 1024 1024" version="1.1" xmlns="http://www.w3.org/2000/svg" p-id="6527" width="256" height="256" xmlns:xlink="http://www.w3.org/1999/xlink"><defs><style type="text/css"></style></defs><path d="M511.001949 1.996101C228.753216 1.996101 0 230.749318 0 512.998051s228.753216 511.001949 511.001949 511.001949 511.001949-228.753216 511.00195-511.001949S793.250682 1.996101 511.001949 1.996101z m-41.518908 795.745809H306.900585V473.874464h162.582456v323.867446z m-1.197661-408.102924H145.016764V227.05653H468.28538c44.912281 0 81.241326 36.42885 81.241326 81.241326 0 44.912281-36.329045 81.341131-81.241326 81.34113z m206.496686 246.718129l-0.99805 0.099805v162.582456H511.301365V473.874464h154.99727c31.837817 0 48.205848-18.763353 48.205848-41.818324 0-23.054971-17.166472-41.818324-48.205848-41.818323l-125.25536-0.598831s50.301754-17.964912 50.301754-81.241325c0-63.076803-54.992593-80.642495-54.992592-80.642495l131.243664-0.598831c126.652632 0 209.391033 92.818713 209.391034 204.99961 0 111.981287-90.323587 203.003509-202.205069 204.20117z" p-id="6528"></path><path d="M511.001949 0.998051C228.753216 0.998051 0 229.751267 0 512s228.753216 511.001949 511.001949 511.001949 511.001949-228.753216 511.00195-511.001949S793.250682 0.998051 511.001949 0.998051z m-41.518908 795.745809H306.900585V472.876413h162.582456v323.867447z m-1.197661-408.102924H145.016764V226.05848H468.28538c44.912281 0 81.241326 36.42885 81.241326 81.241325 0 44.912281-36.329045 81.341131-81.241326 81.341131z m206.496686 246.718128l-0.99805 0.099805v162.582457H511.301365V472.876413h154.99727c31.837817 0 48.205848-18.763353 48.205848-41.818323 0-23.054971-17.166472-41.818324-48.205848-41.818324l-125.25536-0.59883s50.301754-17.964912 50.301754-81.241326c0-63.076803-54.992593-80.642495-54.992592-80.642495l131.243664-0.59883c126.652632 0 209.391033 92.818713 209.391034 204.99961 0 111.981287-90.323587 203.003509-202.205069 204.201169z" p-id="6529"></path><path d="M511.001949 0C228.753216 0 0 228.753216 0 511.001949s228.753216 511.001949 511.001949 511.00195 511.001949-228.753216 511.00195-511.00195S793.250682 0 511.001949 0z m-41.518908 795.745809H306.900585V471.878363h162.582456v323.867446z m-1.197661-408.102924H145.016764V225.060429H468.28538c44.912281 0 81.241326 36.42885 81.241326 81.241325 0 44.912281-36.329045 81.341131-81.241326 81.341131z m206.496686 246.718129l-0.99805 0.099805v162.582456H511.301365V471.878363h154.99727c31.837817 0 48.205848-18.763353 48.205848-41.818324 0-23.054971-17.166472-41.818324-48.205848-41.818324l-125.25536-0.59883s50.301754-17.964912 50.301754-81.241326c0-63.076803-54.992593-80.642495-54.992592-80.642495l131.243664-0.59883c126.652632 0 209.391033 92.818713 209.391034 204.99961 0 111.981287-90.323587 203.003509-202.205069 204.20117z" p-id="6530" data-spm-anchor-id="a313x.7781069.0.i0" class="selected" fill="#0f4c81"></path></svg>