<svg width="1024" height="1024" xmlns="http://www.w3.org/2000/svg" class="icon">
 <defs>
  <style type="text/css"/>
 </defs>
 <g>
  <title>background</title>
  <rect fill="none" id="canvas_background" height="402" width="582" y="-1" x="-1"/>
 </g>
 <g>
  <title>Layer 1</title>
  <path id="svg_1" d="m511.00195,1.9961c-282.24873,0 -511.00195,228.75322 -511.00195,511.00195s228.75322,511.00195 511.00195,511.00195s511.00195,-228.75322 511.00195,-511.00195s-228.75322,-511.00195 -511.00195,-511.00195zm-41.51891,795.74581l-162.58246,0l0,-323.86745l162.58246,0l0,323.86745zm-1.19766,-408.10292l-323.26862,0l0,-162.58246l323.26862,0c44.91228,0 81.24133,36.42885 81.24133,81.24133c0,44.91228 -36.32905,81.34113 -81.24133,81.34113zm206.49669,246.71813l-0.99805,0.0998l0,162.58246l-162.48266,0l0,-325.16492l154.99727,0c31.83782,0 48.20585,-18.76335 48.20585,-41.81832c0,-23.05497 -17.16647,-41.81832 -48.20585,-41.81832l-125.25536,-0.59883s50.30176,-17.96492 50.30176,-81.24133c0,-63.0768 -54.99259,-80.64249 -54.99259,-80.64249l131.24366,-0.59884c126.65263,0 209.39103,92.81872 209.39103,204.99961c0,111.98129 -90.32358,203.00351 -202.20506,204.20117l0,0.00001z"/>
  <path id="svg_2" d="m511.00195,0.99805c-282.24873,0 -511.00195,228.75322 -511.00195,511.00195s228.75322,511.00195 511.00195,511.00195s511.00195,-228.75322 511.00195,-511.00195s-228.75322,-511.00195 -511.00195,-511.00195zm-41.51891,795.74581l-162.58246,0l0,-323.86745l162.58246,0l0,323.86745zm-1.19766,-408.10292l-323.26862,0l0,-162.58246l323.26862,0c44.91228,0 81.24133,36.42885 81.24133,81.24132c0,44.91229 -36.32905,81.34114 -81.24133,81.34114zm206.49669,246.71812l-0.99805,0.09981l0,162.58246l-162.48266,0l0,-325.16492l154.99727,0c31.83782,0 48.20585,-18.76335 48.20585,-41.81832c0,-23.05497 -17.16647,-41.81832 -48.20585,-41.81832l-125.25536,-0.59883s50.30176,-17.96492 50.30176,-81.24133c0,-63.0768 -54.99259,-80.6425 -54.99259,-80.6425l131.24366,-0.59883c126.65263,0 209.39103,92.81872 209.39103,204.99961c0,111.98129 -90.32358,203.00351 -202.20506,204.20117z"/>
  <ellipse opacity="0.8" stroke="#000" ry="469.000618" rx="469.000618" id="svg_4" cy="505.294221" cx="507.624372" stroke-width="1.5" fill="#fff"/>
  <path id="svg_3" fill="#0f4c81" class="selected" d="m511.00195,0c-282.24873,0 -511.00195,228.75322 -511.00195,511.00195s228.75322,511.00195 511.00195,511.00195s511.00195,-228.75322 511.00195,-511.00195s-228.75322,-511.00195 -511.00195,-511.00195zm-41.51891,795.74581l-162.58246,0l0,-323.86745l162.58246,0l0,323.86745zm-1.19766,-408.10292l-323.26862,0l0,-162.58246l323.26862,0c44.91228,0 81.24133,36.42885 81.24133,81.24132c0,44.91229 -36.32905,81.34114 -81.24133,81.34114zm206.49669,246.71812l-0.99805,0.09981l0,162.58245l-162.48266,0l0,-325.16491l154.99727,0c31.83782,0 48.20585,-18.76335 48.20585,-41.81832c0,-23.05497 -17.16647,-41.81833 -48.20585,-41.81833l-125.25536,-0.59883s50.30176,-17.96491 50.30176,-81.24132c0,-63.0768 -54.99259,-80.6425 -54.99259,-80.6425l131.24366,-0.59883c126.65263,0 209.39103,92.81872 209.39103,204.99961c0,111.98129 -90.32358,203.00351 -202.20506,204.20117z"/>
 </g>
</svg>