<?xml version="1.0" standalone="no"?><!DOCTYPE svg PUBLIC "-//W3C//DTD SVG 1.1//EN" "http://www.w3.org/Graphics/SVG/1.1/DTD/svg11.dtd"><svg t="1591709480177" class="icon" viewBox="0 0 1024 1024" version="1.1" xmlns="http://www.w3.org/2000/svg" p-id="5201" xmlns:xlink="http://www.w3.org/1999/xlink" width="32" height="32"><defs><style type="text/css"></style></defs><path d="M1019.733333 499.2l-12.8-17.066667c0-4.266667-51.2-64-136.533333-128-115.2-85.333333-238.933333-128-358.4-128-119.466667 0-243.2 42.666667-358.4 128-85.333333 64-136.533333 123.733333-136.533333 128l-12.8 17.066667c-4.266667 8.533333-4.266667 21.333333 0 25.6l12.8 17.066667c0 4.266667 51.2 64 136.533333 128 115.2 85.333333 238.933333 128 358.4 128 119.466667 0 243.2-42.666667 358.4-128 85.333333-64 136.533333-123.733333 136.533333-128l12.8-17.066667c4.266667-8.533333 4.266667-17.066667 0-25.6zM512 708.266667c-110.933333 0-196.266667-89.6-196.266667-196.266667 0-110.933333 89.6-196.266667 196.266667-196.266667 110.933333 0 196.266667 89.6 196.266667 196.266667 0 110.933333-89.6 196.266667-196.266667 196.266667z" p-id="5202" fill="#0f4c81"></path><path d="M512 362.666667c-81.066667 0-149.333333 68.266667-149.333333 149.333333s68.266667 149.333333 149.333333 149.333333 149.333333-68.266667 149.333333-149.333333-68.266667-149.333333-149.333333-149.333333z m115.2 149.333333c0 64-51.2 115.2-115.2 115.2-12.8 0-21.333333-8.533333-21.333333-21.333333 0-4.266667 4.266667-12.8 8.533333-17.066667 4.266667-4.266667 8.533333-8.533333 17.066667-8.533333 38.4 0 68.266667-29.866667 68.266666-68.266667 0-12.8 8.533333-21.333333 21.333334-21.333333 8.533333 0 21.333333 8.533333 21.333333 21.333333z" p-id="5203" fill="#0f4c81"></path></svg>